<?xml version="1.0"?><svg xmlns="http://www.w3.org/2000/svg"  viewBox="0 0 50 50" width="50px" height="50px">    <path style="fill:#dbe6fd" d="M41.868,38.504c-0.03-0.052-2.281-4.107-3.333-12.102c-2.961,9.106-9.419,16.827-9.772,17.244C28.565,43.88,28.284,44,28,44 c-0.228,0-0.458-0.078-0.645-0.236c-0.422-0.357-0.475-0.988-0.118-1.409C27.344,42.227,38,29.488,38,18 c0-6.122-4.359-11.381-10.195-12.68l-1.877-4.692C25.776,0.249,25.409,0,25,0s-0.776,0.249-0.929,0.628L22.195,5.32 C16.359,6.619,12,11.878,12,18c0,11.5,10.656,24.227,10.763,24.354c0.357,0.422,0.304,1.053-0.117,1.409 C22.458,43.922,22.229,44,22.001,44c-0.284,0-0.566-0.12-0.764-0.354c-0.353-0.417-6.814-8.142-9.774-17.251 c-1.054,7.973-3.302,12.058-3.332,12.111c-0.215,0.38-0.16,0.857,0.138,1.177C8.662,40.104,17.98,50,25,50 s16.338-9.896,16.731-10.318C42.03,39.362,42.085,38.884,41.868,38.504z M19,28c-1.417,0-3-6-3-6s5.583,1.833,7,5 C23,27,20.417,28,19,28z M25,9.877l-0.952-3.806L25,3.692l0.952,2.379L25,9.877z M34,22c0,0-1.583,6-3,6s-4-1-4-1 C28.417,23.833,34,22,34,22z"/></svg>