<svg data-v-423bf9ae="" xmlns="http://www.w3.org/2000/svg" viewBox="0 0 383.57488424221367 163" class="iconAbove"><!----><!----><!----><g id="0569b83d-9e88-4fde-8561-05de09381351" fill="#ffffff" transform="matrix(9.66183568944126,0,0,9.66183568944126,-1.5459001162361972,79.13526867009428)"><path d="M2.65 7.97L2.65 7.97L2.79 8.59L4.08 8.59L4.08 4.62L2.31 4.62L2.31 5.16L2.56 5.32L2.56 7.52Q2.54 7.53 2.52 7.55Q2.49 7.57 2.48 7.58Q2.47 7.59 2.45 7.60Q2.42 7.62 2.41 7.63Q2.39 7.64 2.37 7.65Q2.35 7.66 2.33 7.67Q2.31 7.67 2.29 7.68Q2.27 7.69 2.24 7.69Q2.22 7.69 2.19 7.69L2.19 7.69Q2.00 7.69 1.92 7.59Q1.85 7.49 1.85 7.28L1.85 7.28L1.85 4.62L0.16 4.62L0.16 5.16L0.32 5.32L0.32 6.99Q0.32 7.90 0.60 8.29Q0.89 8.68 1.54 8.68L1.54 8.68Q1.75 8.68 1.96 8.59Q2.17 8.50 2.31 8.37Q2.45 8.25 2.53 8.14Q2.62 8.03 2.65 7.97ZM4.73 8.59L6.24 8.59L6.24 5.87Q6.25 5.86 6.27 5.84Q6.30 5.81 6.31 5.81Q6.32 5.80 6.35 5.77Q6.37 5.75 6.39 5.74Q6.40 5.74 6.43 5.72Q6.45 5.70 6.47 5.70Q6.49 5.69 6.51 5.68Q6.54 5.67 6.56 5.66Q6.58 5.66 6.61 5.65Q6.63 5.65 6.66 5.65L6.66 5.65Q7.05 5.65 7.03 6.09L7.03 6.09L7.03 8.59L8.57 8.59L8.57 6.22Q8.57 6.19 8.58 6.13L8.58 6.13Q8.58 6.08 8.58 6.05L8.58 6.05Q8.58 5.23 8.31 4.88Q8.05 4.53 7.41 4.53L7.41 4.53Q7.23 4.53 7.04 4.60Q6.85 4.67 6.72 4.77Q6.58 4.87 6.47 4.97Q6.36 5.08 6.30 5.15L6.30 5.15L6.25 5.22L6.25 4.62L5.46 4.62L4.45 4.90L4.45 5.39L4.73 5.57L4.73 8.59ZM10.39 8.68L10.39 8.68Q12.19 8.68 12.19 7.25L12.19 7.25Q12.19 6.75 11.95 6.42Q11.70 6.09 11.15 5.91L11.15 5.91Q11.06 5.88 10.92 5.84Q10.78 5.81 10.71 5.79Q10.64 5.77 10.56 5.73Q10.48 5.70 10.45 5.65Q10.42 5.60 10.42 5.53L10.42 5.53Q10.42 5.26 10.86 5.26L10.86 5.26Q11.40 5.26 11.71 5.57L11.71 5.57L11.91 4.90Q11.91 4.90 11.83 4.82L11.83 4.82Q11.45 4.53 10.65 4.53L10.65 4.53Q10.19 4.53 9.81 4.66Q9.43 4.80 9.19 5.10Q8.95 5.40 8.95 5.82L8.95 5.82Q8.95 6.85 10.03 7.17L10.03 7.17Q10.45 7.30 10.64 7.39Q10.83 7.49 10.83 7.61L10.83 7.61Q10.83 7.74 10.72 7.81Q10.62 7.88 10.34 7.88L10.34 7.88Q9.95 7.88 9.58 7.77Q9.21 7.65 9.05 7.50L9.05 7.50L8.93 8.25Q9.05 8.39 9.50 8.54Q9.95 8.68 10.39 8.68ZM15.67 8.25L15.71 8.20L15.48 7.56Q15.32 7.69 15.08 7.75Q14.83 7.80 14.60 7.80L14.60 7.80Q14.49 7.80 14.42 7.79Q14.35 7.78 14.24 7.72Q14.14 7.66 14.07 7.55Q14.00 7.44 13.95 7.22Q13.90 7 13.90 6.69L13.90 6.69Q13.90 5.97 14.06 5.68Q14.22 5.39 14.65 5.39L14.65 5.39Q14.71 5.39 14.75 5.39L14.75 5.39L15.02 6.11L15.68 6.10L15.75 5.01Q15.75 5.01 15.65 4.91L15.65 4.91Q15.20 4.52 14.39 4.52L14.39 4.52Q13.97 4.52 13.61 4.67Q13.25 4.82 12.98 5.08Q12.71 5.35 12.56 5.76Q12.40 6.16 12.40 6.66L12.40 6.66Q12.40 7.57 12.91 8.13Q13.41 8.68 14.35 8.68L14.35 8.68Q14.63 8.68 14.88 8.64Q15.12 8.59 15.27 8.51Q15.42 8.44 15.52 8.37Q15.63 8.30 15.67 8.25L15.67 8.25ZM16.22 8.59L17.72 8.59L17.72 6.45Q17.86 6.20 18.34 6.20L18.34 6.20Q18.67 6.20 18.76 6.29L18.76 6.29L18.92 4.63Q18.80 4.59 18.68 4.59L18.68 4.59Q17.64 4.59 17.45 5.73L17.45 5.73L17.32 4.62L16.94 4.62L15.94 4.87L15.94 5.39L16.22 5.57L16.22 8.59ZM21.26 8.22L21.30 8.17L21.45 8.59L22.73 8.59L22.60 8.22L22.60 6.32Q22.60 5.81 22.52 5.48Q22.44 5.14 22.25 4.93Q22.06 4.71 21.76 4.62Q21.46 4.53 20.99 4.53L20.99 4.53Q20.46 4.53 19.95 4.68Q19.45 4.84 19.13 5.04L19.13 5.04L19.43 5.68Q19.60 5.59 19.92 5.52Q20.23 5.45 20.52 5.45L20.52 5.45Q20.86 5.45 21.01 5.57Q21.16 5.68 21.16 5.97L21.16 5.97L21.16 6.05Q21 6.05 20.83 6.07Q20.65 6.08 20.44 6.12Q20.22 6.16 20.02 6.23Q19.82 6.29 19.62 6.40Q19.43 6.51 19.29 6.65Q19.15 6.79 19.06 6.99Q18.97 7.20 18.97 7.44L18.97 7.44Q18.97 8.68 20.23 8.68L20.23 8.68Q20.42 8.68 20.59 8.63Q20.77 8.58 20.89 8.50Q21.02 8.43 21.11 8.35Q21.21 8.28 21.26 8.22L21.26 8.22ZM20.93 7.86L20.93 7.86Q20.54 7.86 20.54 7.28L20.54 7.28Q20.54 6.95 20.71 6.80Q20.87 6.64 21.16 6.64L21.16 6.64L21.16 7.76Q21.16 7.76 21.13 7.79Q21.10 7.81 21.05 7.84Q21.00 7.86 20.93 7.86ZM23.19 8.59L24.70 8.59L24.70 5.87Q24.71 5.86 24.74 5.84Q24.76 5.81 24.77 5.81Q24.78 5.80 24.81 5.77Q24.84 5.75 24.85 5.74Q24.86 5.74 24.89 5.72Q24.91 5.70 24.93 5.70Q24.95 5.69 24.97 5.68Q25.00 5.67 25.02 5.66Q25.04 5.66 25.07 5.65Q25.09 5.65 25.12 5.65L25.12 5.65Q25.51 5.65 25.49 6.09L25.49 6.09L25.49 8.59L27.03 8.59L27.03 6.36Q27.03 6.09 27.02 5.87L27.02 5.87Q27.25 5.65 27.39 5.65L27.39 5.65Q27.59 5.65 27.69 5.76Q27.79 5.88 27.79 6.09L27.79 6.09L27.79 8.59L29.30 8.59L29.30 6.22Q29.30 5.56 29.19 5.19Q29.08 4.83 28.83 4.68Q28.59 4.53 28.15 4.53L28.15 4.53Q27.75 4.53 27.42 4.77Q27.09 5.01 26.94 5.28L26.94 5.28Q26.83 4.88 26.59 4.70Q26.34 4.53 25.87 4.53L25.87 4.53Q25.69 4.53 25.51 4.60Q25.32 4.67 25.19 4.76Q25.06 4.85 24.94 4.97Q24.82 5.08 24.78 5.14Q24.73 5.19 24.71 5.22L24.71 5.22L24.71 4.62L23.92 4.62L22.91 4.90L22.91 5.39L23.19 5.57L23.19 8.59ZM32.28 8.59L32.28 8.59Q32.67 8.59 32.97 8.43Q33.27 8.26 33.46 7.98Q33.66 7.70 33.75 7.32Q33.85 6.95 33.85 6.51L33.85 6.51Q33.85 5.58 33.49 5.05Q33.13 4.53 32.36 4.53L32.36 4.53Q32.18 4.53 32.02 4.57Q31.85 4.61 31.73 4.68Q31.60 4.75 31.51 4.83Q31.43 4.90 31.35 4.98L31.35 4.98L31.35 2.47L31.05 2.47L29.55 2.71L29.55 3.14L29.83 3.31L29.83 8.59L31.35 8.59L31.35 8.37Q31.76 8.59 32.28 8.59ZM31.60 7.94L31.60 7.94Q31.54 7.94 31.48 7.93Q31.42 7.92 31.35 7.91L31.35 7.91L31.35 5.48Q31.53 5.35 31.70 5.35L31.70 5.35Q31.93 5.35 32.08 5.57Q32.22 5.79 32.22 6.19L32.22 6.19L32.22 6.98Q32.22 7.94 31.60 7.94ZM34.28 3.31L34.28 8.59L35.80 8.59L35.80 2.47L35.50 2.47L34.00 2.71L34.00 3.14L34.28 3.31ZM38.39 8.22L38.43 8.17L38.58 8.59L39.86 8.59L39.73 8.22L39.73 6.32Q39.73 5.81 39.65 5.48Q39.57 5.14 39.38 4.93Q39.20 4.71 38.89 4.62Q38.59 4.53 38.12 4.53L38.12 4.53Q37.59 4.53 37.09 4.68Q36.58 4.84 36.26 5.04L36.26 5.04L36.56 5.68Q36.74 5.59 37.05 5.52Q37.36 5.45 37.65 5.45L37.65 5.45Q37.99 5.45 38.14 5.57Q38.29 5.68 38.29 5.97L38.29 5.97L38.29 6.05Q38.13 6.05 37.96 6.07Q37.79 6.08 37.57 6.12Q37.35 6.16 37.15 6.23Q36.95 6.29 36.75 6.40Q36.56 6.51 36.42 6.65Q36.28 6.79 36.19 6.99Q36.10 7.20 36.10 7.44L36.10 7.44Q36.10 8.68 37.36 8.68L37.36 8.68Q37.55 8.68 37.73 8.63Q37.90 8.58 38.03 8.50Q38.15 8.43 38.25 8.35Q38.34 8.28 38.39 8.22L38.39 8.22ZM38.07 7.86L38.07 7.86Q37.67 7.86 37.67 7.28L37.67 7.28Q37.67 6.95 37.84 6.80Q38.01 6.64 38.29 6.64L38.29 6.64L38.29 7.76Q38.29 7.76 38.26 7.79Q38.23 7.81 38.18 7.84Q38.13 7.86 38.07 7.86Z"></path></g><!----><g id="993f44dd-c8d5-48cd-91ac-aed6bb512aab" transform="matrix(2.25,0,0,2.25,79.5,-67.5)" stroke="none" fill="#00A3DD"><path d="M90 30H62.929l-30 30H10v10h27.071l30-30H90z"></path><path d="M41.161 48.232l7.071-7.071L37.071 30H10v10h22.929zM67.071 60l-8.232-8.232-7.071 7.071L62.929 70H90V60z"></path></g><!----></svg>